<svg width="34" height="24" fill="none" xmlns="http://www.w3.org/2000/svg"><path d="M17.117 7.395a.436.436 0 00-.01-.079c0-.006 0-.013-.002-.02L16.05 2.95a.609.609 0 00-.145-.264.934.934 0 00-.282-.206 1.327 1.327 0 00-.375-.117 1.526 1.526 0 00-.411-.009c-.137.016-.268.05-.385.1a.997.997 0 00-.3.194.646.646 0 00-.17.258.503.503 0 00-.012.283l.527 2.173a1.077 1.077 0 11-2.123.253V3.07c0-.193-.11-.377-.308-.513a1.335 1.335 0 00-.746-.212c-.28 0-.548.076-.745.212-.198.136-.31.32-.31.513v2.545a1.077 1.077 0 11-2.122-.253l.527-2.173a.504.504 0 00-.013-.283.648.648 0 00-.169-.258.999.999 0 00-.3-.193 1.378 1.378 0 00-.384-.1 1.525 1.525 0 00-.412.008 1.327 1.327 0 00-.375.117.934.934 0 00-.282.206.609.609 0 00-.145.264L5.536 7.296l-.004.02a.537.537 0 00-.009.08l-.002.02.001.019v.013c.013.925.493 1.818 1.359 2.527 1.633 1.338 3.385 2.94 3.385 5.052v5.429c0 .192.11.376.309.512.197.136.466.212.745.212.28 0 .548-.076.746-.212.197-.136.308-.32.308-.512v-5.43c0-2.111 1.752-3.713 3.386-5.051.865-.709 1.345-1.602 1.358-2.527v-.053zm11.071-4.339a.453.453 0 00-.016-.113.488.488 0 00-.041-.11l-.006-.012-.007-.013a.63.63 0 00-.125-.16.734.734 0 00-.035-.031l-.027-.022a.97.97 0 00-.04-.03c-.01-.008-.02-.014-.03-.02a.95.95 0 00-.044-.028l-.036-.02a1.194 1.194 0 00-.087-.041l-.038-.017a1.232 1.232 0 00-.053-.019l-.037-.012a1.334 1.334 0 00-.247-.052 1.443 1.443 0 00-.164-.011h-.04a1.517 1.517 0 00-.323.04l-.018.003-.039.01-.014.004c-2.716.702-4.892 2.991-6.465 6.808a26.401 26.401 0 00-1.55 5.373.512.512 0 00.045.3.72.72 0 00.22.261c.098.076.22.136.354.178.135.041.282.063.43.063h1.254c2.8 0 5.071 2.27 5.071 5.071 0 .192.111.376.31.512.197.136.465.212.745.212.28 0 .547-.076.745-.212.198-.136.309-.32.309-.512V3.069l-.001-.013z" fill="#000"/></svg>