<svg width="18" height="23" fill="none" xmlns="http://www.w3.org/2000/svg"><path d="M9.86.1c.336.141.6.42.72.768.854 2.459 3.139 4.7 4.402 5.94.315.309.566.556.716.728 5.474 6.286.364 14.593-6.737 14.593-6.185 0-11.268-6.39-7.873-12.92.45-.864.993-1.581 1.616-2.13a1.293 1.293 0 011.945.276c.512.805 1.125 1.376 2.453 1.544-1.07-3.991-.592-6.881 1.42-8.593A1.286 1.286 0 019.361 0a1.307 1.307 0 01.5.1z" fill="#D52824"/><path d="M10.058 8.051a.663.663 0 01.369.394c.437 1.261 1.61 2.411 2.257 3.047a8.4 8.4 0 01.368.373c2.807 3.224.187 7.485-3.456 7.485-3.172 0-5.78-3.277-4.038-6.626.23-.444.51-.812.829-1.093a.665.665 0 01.997.141c.263.414.578.706 1.259.792-.549-2.047-.304-3.53.728-4.407a.66.66 0 01.687-.106z" fill="#FFED00"/></svg>