<svg width="30" height="27" viewBox="0 0 30 27" fill="none" xmlns="http://www.w3.org/2000/svg">
<path d="M2.5 4.97729H6.31818L8.87636 17.7587C8.96365 18.1981 9.20273 18.5929 9.55175 18.8739C9.90077 19.1548 10.3375 19.3041 10.7855 19.2955H20.0636C20.5116 19.3041 20.9483 19.1548 21.2973 18.8739C21.6464 18.5929 21.8854 18.1981 21.9727 17.7587L23.5 9.75002H7.27273M11.0909 24.0682C11.0909 24.5954 10.6635 25.0227 10.1364 25.0227C9.60918 25.0227 9.18182 24.5954 9.18182 24.0682C9.18182 23.541 9.60918 23.1137 10.1364 23.1137C10.6635 23.1137 11.0909 23.541 11.0909 24.0682ZM21.5909 24.0682C21.5909 24.5954 21.1635 25.0227 20.6364 25.0227C20.1092 25.0227 19.6818 24.5954 19.6818 24.0682C19.6818 23.541 20.1092 23.1137 20.6364 23.1137C21.1635 23.1137 21.5909 23.541 21.5909 24.0682Z" stroke="#11973F" stroke-width="2" stroke-linecap="round" stroke-linejoin="round"/>
</svg>
