<svg width="34" height="24" viewBox="0 0 34 24" fill="none" xmlns="http://www.w3.org/2000/svg">
<path d="M17.1173 7.39507C17.1168 7.38198 17.1161 7.36889 17.1144 7.35571C17.1128 7.34249 17.1105 7.32945 17.1079 7.31645C17.1065 7.30973 17.1061 7.30305 17.1045 7.29628L16.0502 2.94944C16.0275 2.85555 15.9781 2.76565 15.9048 2.68487C15.8316 2.6041 15.7358 2.53404 15.6232 2.4787C15.5105 2.42335 15.383 2.38381 15.2481 2.36233C15.1131 2.34084 14.9734 2.33784 14.8367 2.35349C14.7001 2.36914 14.5693 2.40314 14.4518 2.45353C14.3343 2.50393 14.2324 2.56975 14.152 2.64722C14.0715 2.72469 14.014 2.81229 13.9829 2.90503C13.9517 2.99777 13.9474 3.09382 13.9703 3.18769L14.4973 5.3606C14.6616 6.03822 14.1483 6.69094 13.451 6.69094C12.8565 6.69094 12.3745 6.20894 12.3745 5.61436V3.06857C12.3745 2.87642 12.2634 2.69215 12.0657 2.55628C11.8679 2.42042 11.5998 2.34409 11.3202 2.34409C11.0405 2.34409 10.7724 2.42042 10.5746 2.55628C10.3769 2.69215 10.2658 2.87642 10.2658 3.06857V5.61436C10.2658 6.20893 9.78385 6.69094 9.18927 6.69094C8.49201 6.69094 7.97868 6.03823 8.14303 5.3606L8.67004 3.18769C8.69291 3.09382 8.68863 2.99777 8.65745 2.90503C8.62627 2.81229 8.56881 2.72469 8.48834 2.64722C8.40787 2.56975 8.30598 2.50393 8.18848 2.45353C8.07099 2.40314 7.94019 2.36914 7.80356 2.35349C7.66694 2.33784 7.52716 2.34084 7.39223 2.36233C7.25729 2.38381 7.12984 2.42335 7.01715 2.4787C6.90446 2.53404 6.80875 2.6041 6.73548 2.68487C6.66221 2.76565 6.61282 2.85555 6.59014 2.94944L5.53583 7.29628C5.53423 7.30305 5.53384 7.30973 5.53242 7.31645C5.52985 7.32945 5.52747 7.34249 5.52586 7.35571C5.52425 7.36889 5.52354 7.38198 5.52296 7.39507C5.52271 7.40188 5.52148 7.40856 5.52148 7.41541C5.52148 7.42186 5.52213 7.42819 5.52219 7.4346C5.52239 7.43907 5.52239 7.44349 5.52271 7.44791C5.53544 8.37288 6.01545 9.26607 6.88065 9.97472C8.51447 11.3129 10.2658 12.9149 10.2658 15.0268V20.4559C10.2658 20.6481 10.3769 20.8324 10.5746 20.9682C10.7724 21.1041 11.0405 21.1804 11.3202 21.1804C11.5998 21.1804 11.8679 21.1041 12.0657 20.9682C12.2634 20.8324 12.3745 20.6481 12.3745 20.4559V15.0268C12.3745 12.9149 14.1258 11.3129 15.7597 9.97471C16.6249 9.26607 17.1049 8.37288 17.1176 7.44791C17.1179 7.44349 17.1179 7.43907 17.1181 7.4346C17.1182 7.42819 17.1188 7.42186 17.1188 7.41541C17.1188 7.40856 17.1176 7.40188 17.1173 7.39507Z" fill="black"/>
<path d="M28.1879 3.05583C28.1876 3.04089 28.1864 3.02594 28.1846 3.01095C28.1835 3.00078 28.1821 2.99069 28.1803 2.98066C28.1781 2.96814 28.1752 2.95563 28.172 2.94312C28.1688 2.93051 28.1653 2.91804 28.1611 2.90571C28.1578 2.89589 28.1541 2.88612 28.1501 2.87634C28.1443 2.8618 28.138 2.84747 28.1308 2.83332C28.1288 2.82925 28.1275 2.82514 28.1254 2.82107C28.123 2.81669 28.12 2.81263 28.1176 2.80829C28.1096 2.7941 28.101 2.78016 28.0918 2.76646C28.0859 2.75753 28.0797 2.74871 28.0733 2.74002C28.0646 2.72835 28.0555 2.71686 28.0459 2.70557C28.0374 2.69545 28.0287 2.6855 28.0196 2.67573C28.0109 2.66653 28.0018 2.6576 27.9925 2.64866C27.9814 2.63788 27.9701 2.62731 27.9581 2.61705C27.9494 2.60949 27.9402 2.60219 27.9311 2.5949C27.9179 2.58446 27.9045 2.57416 27.8906 2.5643C27.8808 2.5574 27.8706 2.55077 27.8604 2.54413C27.8464 2.53494 27.8323 2.52592 27.8175 2.51729C27.8057 2.51035 27.7934 2.50381 27.7811 2.49722C27.7673 2.48988 27.7535 2.48258 27.7392 2.47568C27.7246 2.46865 27.7095 2.46206 27.6944 2.45556C27.6816 2.45004 27.6688 2.44446 27.6556 2.43934C27.6384 2.43261 27.6209 2.42642 27.6031 2.42037C27.5909 2.41621 27.5788 2.41205 27.5664 2.40821C27.5478 2.40246 27.5288 2.39724 27.5095 2.3922C27.4968 2.38888 27.4841 2.38557 27.4711 2.38256C27.4527 2.37827 27.434 2.37451 27.4151 2.37093C27.4001 2.36806 27.3851 2.36536 27.3699 2.36293C27.3532 2.36032 27.3362 2.35806 27.3193 2.35598C27.3007 2.35368 27.2823 2.35174 27.2635 2.35015C27.2492 2.34895 27.2348 2.34798 27.2202 2.34714C27.1987 2.34595 27.177 2.34519 27.1552 2.34488C27.1482 2.3448 27.1415 2.34418 27.1346 2.34418C27.1282 2.34418 27.122 2.34475 27.1157 2.34484C27.094 2.34511 27.0724 2.3459 27.0507 2.3471C27.0359 2.34789 27.0211 2.34882 27.0065 2.35006C26.9882 2.35161 26.9701 2.35355 26.9519 2.35576C26.9335 2.35797 26.9154 2.36041 26.8974 2.36328C26.8832 2.36553 26.8689 2.3681 26.8547 2.3708C26.8335 2.37478 26.8127 2.37915 26.7921 2.38406C26.7862 2.38543 26.7802 2.38632 26.7743 2.38777C26.7613 2.39105 26.7485 2.39494 26.7355 2.39825C26.7306 2.39962 26.7256 2.40082 26.7207 2.40223C24.0046 3.10367 21.8295 5.39334 20.2556 9.21032C19.5417 10.9716 19.0237 12.7677 18.7062 14.583C18.6904 14.6841 18.7058 14.7863 18.7513 14.883C18.7968 14.9798 18.8714 15.0688 18.9703 15.1444C19.0691 15.22 19.1901 15.2805 19.3252 15.3219C19.4603 15.3633 19.6065 15.3847 19.7544 15.3847H21.0089C23.8098 15.3847 26.0803 17.6552 26.0803 20.456C26.0803 20.6482 26.1913 20.8324 26.3891 20.9683C26.5868 21.1042 26.855 21.1805 27.1346 21.1805C27.4142 21.1805 27.6824 21.1042 27.8801 20.9683C28.0778 20.8324 28.1889 20.6482 28.1889 20.456V3.06865C28.1889 3.06432 28.188 3.06016 28.1879 3.05583Z" fill="black"/>
</svg>
