<svg width="18" height="23" viewBox="0 0 18 23" fill="none" xmlns="http://www.w3.org/2000/svg">
<path d="M9.8608 0.100128C10.1964 0.241269 10.4597 0.519248 10.5805 0.868169C11.4335 3.32654 13.7187 5.56858 14.9816 6.80768C15.2967 7.11688 15.5482 7.36362 15.6979 7.5357C21.172 13.8216 16.0624 22.1288 8.96143 22.1288C2.77558 22.1288 -2.30656 15.7388 1.08832 9.20995C1.53725 8.34484 2.08101 7.6279 2.70397 7.07902C2.98747 6.82913 3.36665 6.71711 3.73971 6.76882C4.1137 6.82224 4.44628 7.03598 4.6488 7.35478C5.16144 8.16043 5.7741 8.73091 7.10192 8.8989V8.89805C6.03259 4.90769 6.50993 2.01763 8.52195 0.306367C8.65292 0.195214 8.80285 0.113394 8.96137 0.0625305C9.03563 0.0386951 9.11193 0.0215363 9.18926 0.0113126C9.24593 0.00381703 9.30314 2.54246e-05 9.36051 1.5285e-07C9.47378 -5.45385e-05 9.58763 0.0145673 9.69898 0.0443691C9.7545 0.0594685 9.80852 0.0781377 9.8608 0.100128Z" fill="#D52824"/>
<path d="M10.0577 8.05136C10.2298 8.12375 10.3649 8.26633 10.4269 8.44529C10.8644 9.70622 12.0365 10.8562 12.6842 11.4917C12.8459 11.6503 12.9749 11.7769 13.0517 11.8652C15.8594 15.0893 13.2386 19.3501 9.59643 19.3501C6.42363 19.3501 3.81694 16.0726 5.55821 12.7239C5.78848 12.2802 6.06738 11.9124 6.3869 11.6309C6.53231 11.5027 6.72679 11.4453 6.91814 11.4718C7.10997 11.4992 7.28055 11.6088 7.38442 11.7724C7.64737 12.1856 7.96161 12.4782 8.64266 12.5644V12.5639C8.09419 10.5172 8.33902 9.03487 9.37101 8.15714C9.43819 8.10013 9.51509 8.05816 9.5964 8.03207C9.63449 8.01985 9.67362 8.01105 9.71328 8.0058C9.74235 8.00196 9.7717 8.00001 9.80112 8C9.85922 7.99997 9.91761 8.00747 9.97473 8.02276C10.0032 8.0305 10.0309 8.04008 10.0577 8.05136Z" fill="#FFED00"/>
</svg>
